<?xml version="1.0" encoding="utf-8"?>
<!-- Generator: Adobe Illustrator 19.1.0, SVG Export Plug-In . SVG Version: 6.00 Build 0)  -->
<svg version="1.1" id="Ebene_1" xmlns="http://www.w3.org/2000/svg" xmlns:xlink="http://www.w3.org/1999/xlink" x="0px" y="0px"
	 viewBox="0 0 1000 1000" style="enable-background:new 0 0 1000 1000;" xml:space="preserve">
<style type="text/css">
	.st0{fill:url(#SVGID_1_);}
	.st1{fill:url(#SVGID_2_);}
	.st2{fill:url(#SVGID_3_);}
	.st3{fill:url(#SVGID_4_);}
	.st4{fill:#4527A0;}
	.st5{fill:#FFFFFF;}
	.st6{fill:url(#SVGID_5_);}
	.st7{fill:url(#SVGID_6_);}
	.st8{fill:url(#SVGID_7_);}
	.st9{fill:url(#SVGID_8_);}
	.st10{fill:#DAD4EC;}
	.st11{fill:url(#SVGID_9_);}
	.st12{fill:url(#SVGID_10_);}
	.st13{fill:url(#SVGID_11_);}
	.st14{fill:url(#SVGID_12_);}
</style>
<g>
	<g>
		<g>
			<linearGradient id="SVGID_1_" gradientUnits="userSpaceOnUse" x1="160.8737" y1="882.5225" x2="499.4776" y2="780.4039">
				<stop  offset="0" style="stop-color:#8F7DC6"/>
				<stop  offset="1" style="stop-color:#4527A0"/>
			</linearGradient>
			<polygon class="st0" points="619.5,899.8 380.4,660.7 141.5,899.6 			"/>
		</g>
		<g>
			<linearGradient id="SVGID_2_" gradientUnits="userSpaceOnUse" x1="380.4059" y1="780.254" x2="858.522" y2="780.254">
				<stop  offset="0" style="stop-color:#8F7DC6"/>
				<stop  offset="1" style="stop-color:#4527A0"/>
			</linearGradient>
			<polygon class="st1" points="380.4,660.7 619.5,899.8 858.5,660.8 			"/>
		</g>
		<g>
			<linearGradient id="SVGID_3_" gradientUnits="userSpaceOnUse" x1="376.5731" y1="772.1664" x2="570.0611" y2="605.5518">
				<stop  offset="0" style="stop-color:#8F7DC6"/>
				<stop  offset="1" style="stop-color:#4527A0"/>
			</linearGradient>
			<polygon class="st2" points="380.4,446.9 380.4,793 726.3,793 			"/>
		</g>
		<g>
			<linearGradient id="SVGID_4_" gradientUnits="userSpaceOnUse" x1="807.8471" y1="470.033" x2="447.9191" y2="368.0534">
				<stop  offset="0" style="stop-color:#4527A0"/>
				<stop  offset="1" style="stop-color:#8F7DC6"/>
			</linearGradient>
			<polygon class="st3" points="726.4,100.8 380.2,447.1 726.3,793.1 			"/>
		</g>
		<g>
			<polygon class="st4" points="726.5,101.5 726.5,189 813.9,189 			"/>
		</g>
		<polygon class="st5" points="733.9,791.8 593,650.8 641.3,636.5 593.3,601.6 594.9,542.2 546.8,577 490.9,557.1 509.1,613.6 
			472.9,660.7 532.3,660.8 565.9,709.8 582.5,659 724.6,801.1 		"/>
	</g>
</g>
</svg>
